<?xml version="1.0" standalone="no"?><!DOCTYPE svg PUBLIC "-//W3C//DTD SVG 1.1//EN" "http://www.w3.org/Graphics/SVG/1.1/DTD/svg11.dtd"><svg t="1730367471800" class="icon" viewBox="0 0 1024 1024" version="1.1" xmlns="http://www.w3.org/2000/svg" p-id="32537" xmlns:xlink="http://www.w3.org/1999/xlink" width="256" height="256"><path d="M816 0c114.88 0 208 93.12 208 208v608c0 114.88-93.12 208-208 208H208C93.12 1024 0 930.88 0 816V208C0 93.12 93.12 0 208 0h608zM492.672 550.8h-71.168C303.584 550.8 208 646.8 208 765.232h498.192c0-118.432-95.6-214.432-213.52-214.432zM770.24 389.968h-56.928l-0.016 76.048h-78.24v57.12l78.24-0.016v81.28h56.96l-0.016-81.28H848v-57.104h-77.76v-76.048zM528.704 245.76a141.264 141.264 0 0 0-142.16 0 142.912 142.912 0 0 0-70.88 123.92 142.912 142.912 0 0 0 70.88 123.92 141.264 141.264 0 0 0 142.16 0 142.912 142.912 0 0 0 70.88-123.92 142.912 142.912 0 0 0-70.88-123.92z" fill="#08bf62" p-id="32538"></path></svg>