<?xml version="1.0" standalone="no"?><!DOCTYPE svg PUBLIC "-//W3C//DTD SVG 1.1//EN" "http://www.w3.org/Graphics/SVG/1.1/DTD/svg11.dtd"><svg t="1730367238465" class="icon" viewBox="0 0 1024 1024" version="1.1" xmlns="http://www.w3.org/2000/svg" p-id="25227" xmlns:xlink="http://www.w3.org/1999/xlink" width="256" height="256"><path d="M896 1024H128a128 128 0 0 1-128-128V128a128 128 0 0 1 128-128h768a128 128 0 0 1 128 128v768a128.16 128.16 0 0 1-128 128zM477.888 252.8a134.624 134.624 0 0 0-111.296 46.464c-45.632 56.672-27.328 142.272-19.936 162.08a130.88 130.88 0 0 0 25.6 40.064l1.824 2.144a41.888 41.888 0 0 1 10.848 15.648 45.408 45.408 0 0 1-2.176 27.712c-9.984 6.4-36.32 23.04-66.784 42.432h-0.256l-75.52 48a62.848 62.848 0 0 0-30.432 52.704v16A69.024 69.024 0 0 0 281.824 771.2h392.896a75.328 75.328 0 0 0 53.824-21.984 59.104 59.104 0 0 0 17.472-42.816v-16a62.592 62.592 0 0 0-30.432-52.704 9183.68 9183.68 0 0 0-142.528-90.752 47.072 47.072 0 0 1-2.176-27.712c0.384-3.744 3.968-7.808 9.92-14.592l0.928-1.056a127.456 127.456 0 0 0 27.424-42.176c8.608-24.736 23.36-107.648-20.032-162.08A134.56 134.56 0 0 0 477.888 252.8z m126.592 12.8c45.312 72.096 29.44 170.208 19.488 201.952a177.696 177.696 0 0 1-33.664 58.464l-2.016 2.56-1.664 2.08v2.144c30.752 21.376 94.624 66.688 131.392 93.184a105.6 105.6 0 0 1 44.48 86.048v8.128a55.744 55.744 0 0 0 42.624-55.232v-14.144a57.088 57.088 0 0 0-24.32-46.304 9021.728 9021.728 0 0 0-112.992-80 46.528 46.528 0 0 1-1.76-24.448 31.52 31.52 0 0 1 7.872-12.8l0.736-0.96a113.024 113.024 0 0 0 21.728-37.184 183.936 183.936 0 0 0-16-143.008 99.904 99.904 0 0 0-75.904-40.256z" fill="#594d9c" p-id="25228"></path></svg>